<?xml version="1.0" encoding="UTF-8" standalone="no"?>
<!-- Created with Inkscape (http://www.inkscape.org/) -->

<svg
   xmlns:dc="http://purl.org/dc/elements/1.1/"
   xmlns:cc="http://creativecommons.org/ns#"
   xmlns:rdf="http://www.w3.org/1999/02/22-rdf-syntax-ns#"
   xmlns:svg="http://www.w3.org/2000/svg"
   xmlns="http://www.w3.org/2000/svg"
   xmlns:xlink="http://www.w3.org/1999/xlink"
   xmlns:sodipodi="http://sodipodi.sourceforge.net/DTD/sodipodi-0.dtd"
   xmlns:inkscape="http://www.inkscape.org/namespaces/inkscape"
   width="300mm"
   height="50mm"
   viewBox="0 0 300 50"
   version="1.1"
   id="svg4827"
   inkscape:version="0.92.1 r15371"
   sodipodi:docname="logo-gradient-dark.svg">
  <defs
     id="defs4821">
    <linearGradient
       inkscape:collect="always"
       id="linearGradient48">
      <stop
         style="stop-color:#808080;stop-opacity:1;"
         offset="0"
         id="stop44" />
      <stop
         style="stop-color:#808080;stop-opacity:0;"
         offset="1"
         id="stop46" />
    </linearGradient>
    <linearGradient
       inkscape:collect="always"
       xlink:href="#linearGradient48"
       id="linearGradient50"
       x1="191.92899"
       y1="1.0880058"
       x2="200.01021"
       y2="193.01698"
       gradientUnits="userSpaceOnUse" />
    <linearGradient
       inkscape:collect="always"
       xlink:href="#linearGradient48"
       id="linearGradient52"
       x1="191.92899"
       y1="1.0880058"
       x2="200.01021"
       y2="193.01698"
       gradientUnits="userSpaceOnUse" />
    <linearGradient
       inkscape:collect="always"
       xlink:href="#linearGradient48"
       id="linearGradient54"
       x1="191.92899"
       y1="1.0880058"
       x2="200.01021"
       y2="193.01698"
       gradientUnits="userSpaceOnUse" />
    <linearGradient
       inkscape:collect="always"
       xlink:href="#linearGradient48"
       id="linearGradient56"
       x1="191.92899"
       y1="1.0880058"
       x2="200.01021"
       y2="193.01698"
       gradientUnits="userSpaceOnUse" />
    <linearGradient
       inkscape:collect="always"
       xlink:href="#linearGradient48"
       id="linearGradient58"
       x1="191.92899"
       y1="1.0880058"
       x2="200.01021"
       y2="193.01698"
       gradientUnits="userSpaceOnUse" />
    <linearGradient
       inkscape:collect="always"
       xlink:href="#linearGradient48"
       id="linearGradient60"
       x1="191.92899"
       y1="1.0880058"
       x2="200.01021"
       y2="193.01698"
       gradientUnits="userSpaceOnUse" />
    <linearGradient
       inkscape:collect="always"
       xlink:href="#linearGradient48"
       id="linearGradient62"
       x1="191.92899"
       y1="1.0880058"
       x2="200.01021"
       y2="193.01698"
       gradientUnits="userSpaceOnUse" />
    <linearGradient
       inkscape:collect="always"
       xlink:href="#linearGradient48"
       id="linearGradient64"
       x1="191.92899"
       y1="1.0880058"
       x2="200.01021"
       y2="193.01698"
       gradientUnits="userSpaceOnUse" />
    <linearGradient
       inkscape:collect="always"
       xlink:href="#linearGradient48"
       id="linearGradient66"
       x1="191.92899"
       y1="1.0880058"
       x2="200.01021"
       y2="193.01698"
       gradientUnits="userSpaceOnUse" />
    <linearGradient
       inkscape:collect="always"
       xlink:href="#linearGradient48"
       id="linearGradient68"
       x1="191.92899"
       y1="1.0880058"
       x2="200.01021"
       y2="193.01698"
       gradientUnits="userSpaceOnUse" />
  </defs>
  <sodipodi:namedview
     id="base"
     pagecolor="#ffffff"
     bordercolor="#666666"
     borderopacity="1.0"
     inkscape:pageopacity="0.0"
     inkscape:pageshadow="2"
     inkscape:zoom="0.9899495"
     inkscape:cx="583.77904"
     inkscape:cy="-3.4875783"
     inkscape:document-units="mm"
     inkscape:current-layer="layer1"
     showgrid="false"
     inkscape:window-width="2560"
     inkscape:window-height="1373"
     inkscape:window-x="-9"
     inkscape:window-y="-9"
     inkscape:window-maximized="1" />
  <metadata
     id="metadata4824">
    <rdf:RDF>
      <cc:Work
         rdf:about="">
        <dc:format>image/svg+xml</dc:format>
        <dc:type
           rdf:resource="http://purl.org/dc/dcmitype/StillImage" />
        <dc:title></dc:title>
      </cc:Work>
    </rdf:RDF>
  </metadata>
  <g
     inkscape:label="Layer 1"
     inkscape:groupmode="layer"
     id="layer1"
     transform="translate(0,-247)">
    <flowRoot
       xml:space="preserve"
       id="flowRoot68"
       style="font-style:normal;font-weight:normal;font-size:40px;line-height:1.25;font-family:sans-serif;letter-spacing:0px;word-spacing:0px;fill:#000000;fill-opacity:1;stroke:none"
       transform="matrix(0.26458333,0,0,0.26458333,144.75702,353.1354)"><flowRegion
         id="flowRegion70"><rect
           id="rect72"
           width="720.36877"
           height="85.580147"
           x="30.742382"
           y="-262.33435" /></flowRegion><flowPara
         id="flowPara74"
         style="font-style:normal;font-variant:normal;font-weight:normal;font-stretch:normal;font-size:32px;font-family:Nasalization;-inkscape-font-specification:Nasalization">SOLAR SYSTEM SIMULATOR</flowPara></flowRoot>    <path
       style="fill:#000000;stroke-width:0.13065615"
       d="m 46.77373,296.94556 c -1.68261,-0.15727 -3.679015,-0.58552 -5.487556,-1.17713 -1.798956,-0.58849 -4.889215,-2.0659 -4.617834,-2.20772 0.09651,-0.0504 0.557697,-0.16317 1.024792,-0.25049 4.10017,-0.76647 9.87592,-2.66176 13.24411,-4.34602 2.002005,-1.00111 4.639995,-2.64658 4.487459,-2.7991 -0.02467,-0.0247 -0.442356,0.0689 -0.928293,0.20787 -0.485927,0.13897 -2.24593,0.57601 -3.911116,0.9712 -17.79739,4.2238 -34.241969,5.38257 -43.5034118,3.06547 -3.4804742,-0.87076 -5.7399084,-2.19635 -6.70127057,-3.93153 -0.350542,-0.63271 -0.3817763,-0.79599 -0.3817763,-1.99565 0,-1.24463 0.023035,-1.35302 0.4853373,-2.28649 0.66082117,-1.33421 1.55372127,-2.47634 3.06697237,-3.92302 3.8025331,-3.63524 9.763484,-7.11201 19.038245,-11.1042 l 2.338846,-1.00672 0.352453,-1.16163 c 1.714783,-5.65169 5.187223,-10.36722 9.995311,-13.5735 5.940207,-3.96126 13.125396,-5.23424 19.925064,-3.53009 4.315054,1.08145 7.986951,3.11115 11.32585,6.26054 l 1.200014,1.1319 3.046317,-0.19721 c 7.750069,-0.50174 11.648008,-0.55066 15.393323,-0.1932 6.680299,0.63759 10.97139,2.32 12.342455,4.83909 0.527019,0.96831 0.609914,2.34803 0.212766,3.54146 -0.429965,1.29206 -1.4542,2.74496 -3.070444,4.35553 -3.941739,3.92789 -10.929074,7.99921 -20.504912,11.94765 l -2.462156,1.01524 -0.423666,1.02773 c -0.8835,2.14321 -2.171267,4.31646 -3.661002,6.17834 -0.855388,1.06908 -3.260524,3.39648 -4.365568,4.2245 -5.011608,3.75524 -11.211384,5.50123 -17.460309,4.91718 z m -18.303699,-10.9279 c -1.743431,-2.63339 -3.099615,-5.87978 -3.703164,-8.86444 -0.436549,-2.15884 -0.572763,-3.86522 -0.486779,-6.09823 l 0.07937,-2.06037 -1.923784,1.00485 c -4.44771,2.32318 -7.146738,4.15421 -9.308605,6.31498 -1.161956,1.16139 -1.620164,1.72465 -2.008982,2.46959 -1.9306393,3.69903 0.876328,6.30321 7.825923,7.26053 1.998512,0.2753 2.170917,0.28393 6.188531,0.30957 l 3.57541,0.0228 z M 75.748747,274.0789 c 4.252247,-2.12894 7.923697,-4.62566 9.884654,-6.72192 3.812708,-4.0758 2.658951,-7.2486 -3.203438,-8.80935 -2.348596,-0.62526 -4.18824,-0.81207 -8.667763,-0.88013 l -4.23836,-0.0644 0.248738,0.37407 c 3.09812,4.65913 4.528705,9.60613 4.344761,15.02433 -0.03505,1.03275 -0.04203,1.87773 -0.01539,1.87773 0.02653,0 0.767647,-0.36015 1.646846,-0.80033 z"
       id="path4748"
       inkscape:connector-curvature="0" />
    <text
       xml:space="preserve"
       style="font-style:normal;font-weight:normal;font-size:10.58333302px;line-height:1.25;font-family:sans-serif;letter-spacing:0px;word-spacing:0px;fill:#000000;fill-opacity:1;stroke:none;stroke-width:0.26458332"
       x="106.45119"
       y="283.75659"
       id="text4804"><tspan
         sodipodi:role="line"
         id="tspan4802"
         x="106.45119"
         y="283.75659"
         style="font-style:normal;font-variant:normal;font-weight:normal;font-stretch:normal;font-size:45.15555573px;font-family:Nasalization;-inkscape-font-specification:Nasalization;stroke-width:0.26458332">Tycho.io</tspan></text>
    <path
       style="fill:url(#linearGradient68);fill-opacity:1;stroke-width:1.01015258"
       d="m 171.6368,187.78394 c -11.79186,-2.26347 -31.87818,-9.75351 -30.80651,-11.48752 0.25144,-0.40682 2.181,-1.01534 4.28793,-1.35225 18.11026,-2.89595 53.0408,-16.8968 63.38915,-25.40762 1.94436,-1.59911 1.88741,-1.64195 -1.51523,-1.13975 -1.94454,0.28698 -11.45786,2.38436 -21.14069,4.66082 -85.54305,20.11143 -162.590774,19.68113 -181.2861889,-1.01246 -3.3836522,-3.74529 -3.64423921,-4.49481 -3.64423921,-10.48171 0,-5.85986 0.37521881,-7.00986 4.11390791,-12.60859 C 15.522464,113.24965 43.746839,94.862924 84.447946,77.22137 92.75824,73.619343 94.863298,72.277982 95.385626,70.251789 99.05576,56.014776 109.75393,38.175067 120.96202,27.601915 c 8.76758,-8.270888 14.09549,-11.946707 24.65385,-17.009142 13.91466,-6.6716831 20.50176,-8.1993959 37.63769,-8.7291101 13.8806,-0.4290842 16.00007,-0.2497445 25.25381,2.1368574 14.03194,3.6189322 26.477,10.0591247 38.2004,19.7683177 l 9.7021,8.035168 16.95993,-1.10199 c 24.54607,-1.594909 56.8153,-0.619939 68.97428,2.083962 22.15751,4.927361 32.78458,13.7631 30.87984,25.674654 -2.74855,17.188471 -36.65998,41.967188 -85.69841,62.618928 l -12.90575,5.43503 -4.088,8.45347 c -5.55463,11.48628 -11.38297,19.3757 -20.89257,28.28083 -11.68216,10.93961 -24.83968,18.19169 -41.24633,22.73389 -5.847,1.61875 -31.22711,2.86245 -36.75606,1.80116 z M 106.46733,144.73425 C 97.283332,129.88107 92.689584,113.63586 92.483753,95.283139 L 92.339827,82.450061 81.977311,87.934453 C 61.256647,98.90093 46.538333,110.66865 41.899285,119.97801 c -4.302307,8.63361 -2.962422,14.45164 4.587774,19.92097 8.510261,6.1648 22.374562,8.87529 46.162561,9.02486 l 16.47223,0.10356 z M 290.62959,100.5668 c 13.10926,-6.958945 22.74859,-13.553557 30.50114,-20.866915 18.50313,-17.454909 13.7544,-31.275284 -12.81392,-37.292798 -4.1249,-0.934259 -14.64569,-1.796812 -26.2987,-2.156115 l -19.42329,-0.598889 6.07534,12.008713 c 7.58577,14.994256 10.02445,24.289275 10.77022,41.050597 0.31518,7.083695 0.84866,12.870717 1.18552,12.860057 0.33684,-0.0107 4.83851,-2.26276 10.00369,-5.00465 z"
       id="path14"
       inkscape:connector-curvature="0"
       transform="matrix(0.26458333,0,0,0.26458333,0,247)" />
    <path
       style="fill:url(#linearGradient66);fill-opacity:1;stroke-width:1.01015258"
       d="M 441.34753,90.943626 V 42.961381 h -16.66752 -16.66752 v -9.59645 -9.596449 h 42.93149 42.93148 v 9.596449 9.59645 h -16.66752 -16.66751 v 47.982245 47.982244 h -9.59645 -9.59645 z"
       id="path16"
       inkscape:connector-curvature="0"
       transform="matrix(0.26458333,0,0,0.26458333,0,247)" />
    <path
       style="fill:url(#linearGradient64);fill-opacity:1;stroke-width:1.01015258"
       d="m 538.78212,171.03565 c 0.76907,-1.82624 4.38946,-10.29269 8.04532,-18.81432 3.65586,-8.52164 6.64702,-15.84927 6.64702,-16.28361 0,-0.43434 -2.10085,-1.02651 -4.66856,-1.31593 -3.36114,-0.37885 -5.46335,-1.33504 -7.50657,-3.41437 -2.48806,-2.53202 -11.23544,-23.34616 -34.0086,-80.922434 -0.37711,-0.95343 1.72,-1.26269 8.56239,-1.26269 h 9.06182 l 10.9146,27.02158 c 19.34676,47.897344 17.2733,43.693094 21.53402,43.663384 l 3.68704,-0.0257 15.13304,-35.329629 15.13303,-35.329625 h 8.85809 c 4.87195,0 8.84793,0.340926 8.83551,0.757614 -0.0124,0.416688 -11.96636,28.486302 -26.56434,62.37692 l -26.54177,61.6193 -9.26017,0.28998 -9.26016,0.28996 z"
       id="path18"
       inkscape:connector-curvature="0"
       transform="matrix(0.26458333,0,0,0.26458333,0,247)" />
    <path
       style="fill:url(#linearGradient62);fill-opacity:1;stroke-width:1.01015258"
       d="m 649.65465,137.84481 c -20.9448,-2.72063 -31.75348,-17.43169 -31.84705,-43.345122 -0.0211,-5.844921 0.56631,-13.231526 1.30536,-16.414678 1.96651,-8.469887 6.94867,-16.820973 12.59889,-21.118266 8.831,-6.716433 11.86627,-7.264336 42.72838,-7.713005 l 27.52665,-0.400178 v 8.670664 8.670664 H 675.8618 c -25.3508,0 -26.23301,0.06765 -30.53233,2.341182 -6.96605,3.683736 -9.44061,9.47035 -9.86801,23.075743 -0.56012,17.830406 3.38688,26.207336 13.69734,29.070576 2.17695,0.60454 14.33615,1.06204 28.31188,1.06525 l 24.4962,0.006 v 8.5863 8.58629 l -22.98097,-0.12809 c -12.63953,-0.0704 -25.8386,-0.49929 -29.33126,-0.95297 z"
       id="path20"
       inkscape:connector-curvature="0"
       transform="matrix(0.26458333,0,0,0.26458333,0,247)" />
    <path
       style="fill:url(#linearGradient60);fill-opacity:1;stroke-width:1.01015258"
       d="M 724.19024,74.781186 V 10.636499 h 8.5863 8.58629 v 19.192899 19.192898 l 18.94036,0.03524 c 11.26899,0.02097 22.0295,0.586387 26.56734,1.396 18.20748,3.248465 28.81073,13.795217 31.3215,31.154622 0.50156,3.467755 0.92107,17.782867 0.93224,31.811362 l 0.0203,25.50635 h -9.09137 -9.09138 v -28.5753 c 0,-27.627177 -0.0754,-28.724595 -2.27284,-33.074351 -2.46547,-4.880339 -7.00281,-8.455625 -12.76062,-10.054987 -2.0099,-0.558294 -12.85937,-1.017615 -24.10995,-1.020713 l -20.45559,-0.0056 v 36.365491 36.36549 h -8.58629 -8.5863 z"
       id="path22"
       inkscape:connector-curvature="0"
       transform="matrix(0.26458333,0,0,0.26458333,0,247)" />
    <path
       style="fill:url(#linearGradient58);fill-opacity:1;stroke-width:1.01015258"
       d="m 873.03853,137.86016 c -9.0592,-1.18092 -15.66934,-4.40741 -21.36286,-10.42747 -8.41946,-8.90234 -11.7417,-22.57019 -10.11657,-41.620024 1.53373,-17.97839 9.27476,-29.247443 23.54742,-34.279329 6.56572,-2.314771 30.76058,-3.254712 40.43094,-1.570692 15.70037,2.734101 25.97697,12.497091 29.84573,28.354074 1.74383,7.147449 1.74319,24.171271 -10e-4,31.314731 -2.86654,11.73901 -10.07927,21.09176 -19.45355,25.22542 -8.28867,3.65496 -27.54624,5.00343 -42.88993,3.00329 z m 32.24916,-17.17777 c 9.72641,-2.70105 14.10487,-11.21999 14.05383,-27.343841 -0.0449,-14.181492 -3.83303,-22.361129 -11.92091,-25.74046 -4.09644,-1.711603 -32.1033,-1.966071 -36.43995,-0.331091 -4.71088,1.776071 -9.34346,7.049711 -10.95258,12.468205 -1.92644,6.487008 -1.9243,21.997967 0.004,28.491007 1.72375,5.80453 5.70952,10.06368 11.27407,12.04738 4.73307,1.68729 28.35451,1.97146 33.98161,0.4088 z"
       id="path24"
       inkscape:connector-curvature="0"
       transform="matrix(0.26458333,0,0,0.26458333,0,247)" />
    <path
       style="fill:url(#linearGradient56);fill-opacity:1;stroke-width:1.01015258"
       d="m 954.50502,127.30912 v -11.61676 h 9.09137 9.09137 v 11.61676 11.61675 h -9.09137 -9.09137 z"
       id="path26"
       inkscape:connector-curvature="0"
       transform="matrix(0.26458333,0,0,0.26458333,0,247)" />
    <path
       style="fill:url(#linearGradient54);fill-opacity:1;stroke-width:1.01015258"
       d="M 997.94158,93.974084 V 49.022296 h 8.58632 8.5863 v 44.951788 44.951786 h -8.5863 -8.58632 z"
       id="path28"
       inkscape:connector-curvature="0"
       transform="matrix(0.26458333,0,0,0.26458333,0,247)" />
    <path
       style="fill:url(#linearGradient52);fill-opacity:1;stroke-width:1.01015258"
       d="m 997.94158,25.283711 v -9.596449 h 8.58632 8.5863 v 9.596449 9.596449 h -8.5863 -8.58632 z"
       id="path30"
       inkscape:connector-curvature="0"
       transform="matrix(0.26458333,0,0,0.26458333,0,247)" />
    <path
       style="fill:#808080;fill-opacity:1;stroke-width:1.01015258"
       d="m 1054.7649,93.974084 c -0.011,-2.222336 0.1864,-3.250415 0.4393,-2.284621 0.2528,0.965794 0.262,2.784069 0.02,4.04061 -0.2417,1.256542 -0.4485,0.466346 -0.4597,-1.755989 z"
       id="path32"
       inkscape:connector-curvature="0"
       transform="matrix(0.26458333,0,0,0.26458333,0,247)" />
    <path
       style="fill:url(#linearGradient50);fill-opacity:1;stroke-width:1.01015258"
       d="m 1069.862,137.99867 c -9.1821,-1.14719 -18.7954,-6.31038 -23.6643,-12.70986 -9.3919,-12.3443 -11.4498,-36.595532 -4.648,-54.774824 2.8582,-7.63933 10.6399,-15.370745 18.7215,-18.600673 5.403,-2.159372 7.3394,-2.340288 25.0486,-2.340288 17.6247,0 19.6634,0.188271 24.9524,2.304314 11.6494,4.660791 19.377,14.538946 22.0518,28.188794 1.8153,9.263209 0.8257,27.513247 -1.9026,35.087427 -3.6975,10.26489 -11.9071,18.32491 -21.6602,21.26538 -6.1201,1.84518 -29.2547,2.78469 -38.8992,1.57973 z m 32.583,-17.3653 c 8.9766,-2.4922 13.6844,-11.66373 13.6844,-26.659286 0,-13.90012 -3.4406,-21.845431 -11.1669,-25.787073 -3.3837,-1.726246 -5.9714,-1.992122 -19.3884,-1.992122 -14.0482,0 -15.9015,0.210708 -19.9908,2.272843 -8.4749,4.27364 -12.5876,17.961359 -10.0788,33.543888 1.779,11.04974 5.6485,16.23439 13.9989,18.75707 4.0605,1.22665 28.396,1.12668 32.9416,-0.13532 z"
       id="path34"
       inkscape:connector-curvature="0"
       transform="matrix(0.26458333,0,0,0.26458333,0,247)" />
  </g>
</svg>
